<svg width="71" height="79" viewBox="0 0 71 79" fill="none" xmlns="http://www.w3.org/2000/svg">
<path d="M1.04496 1.65491C2.18667 0.139689 4.20932 -0.0224024 5.95711 0.00578785C25.9158 0.0339781 45.8745 0.00578548 65.8332 0.0198806C68.2082 -0.191546 70.9004 1.29549 70.9991 3.90309C71.0273 9.98514 70.4071 16.0672 70.0688 22.1422C69.9137 23.8618 70.0265 25.7646 68.8989 27.2023C68.0461 28.6612 66.2561 28.9501 64.8043 29.4998C64.8325 45.1172 64.8606 60.7346 64.7902 76.345C65.0721 77.7475 63.4159 78.1773 62.3658 78.0716C43.88 78.0364 25.4013 78.0434 6.91558 78.0646C6.5773 77.0427 6.20377 76.0208 6.27425 74.9284C6.32358 59.7621 6.30949 44.5957 6.28835 29.4294C4.09656 28.9783 1.68629 27.8296 1.3762 25.3418C0.713726 19.8235 0.741917 14.2348 0.199255 8.69543C0.149922 6.35564 -0.561884 3.65642 1.04496 1.65491ZM2.79276 2.69796C3.12399 2.83891 3.79351 3.11376 4.1318 3.24767L3.41999 3.26881C3.13104 7.2084 3.87103 11.1268 3.89218 15.0664C4.16703 18.703 4.04017 22.4241 5.04798 25.962C4.93522 26.1734 4.71674 26.5962 4.60398 26.8077C23.132 27.3151 41.6883 26.8711 60.2234 27.0614C61.95 26.9839 63.9233 27.3503 65.3187 26.0677C65.953 25.6871 66.6437 25.1303 66.5803 24.2987C67.0806 18.6325 67.285 12.9451 67.7642 7.27887C67.9052 5.91164 67.7854 4.53737 67.5246 3.18424L68.3703 3.15605C66.9185 2.4372 65.3046 2.29624 63.7189 2.31739C45.649 2.30329 27.572 2.33853 9.50204 2.29625C7.26091 2.2892 5.01274 2.38786 2.79276 2.69796ZM9.57251 29.2955C9.55137 44.4689 9.57251 59.6352 9.55842 74.8086C26.9166 74.8791 44.2747 74.7663 61.6329 74.8579V74.3082L62.3376 74.3012C62.3517 60.9108 62.3306 47.5134 62.3658 34.123C62.3869 32.5655 62.2178 31.008 61.6892 29.5421L61.6963 29.3025C44.324 29.2743 26.9448 29.2673 9.57251 29.2955Z" fill="#EB7824"/>
<path d="M44.5927 37.5621C48.3913 37.4 52.2111 37.407 56.0097 37.5409C57.3206 39.0773 56.4819 41.3959 56.7356 43.2565C56.6158 44.5744 57.2078 47.1679 55.1711 47.1115C51.3795 47.2384 47.5527 47.3652 43.7752 46.9071C43.7117 44.0035 43.5285 41.0858 43.7893 38.1893C43.9936 38.0342 44.3883 37.7171 44.5927 37.5621ZM46.9677 40.6489C46.9536 41.7201 46.9536 42.7843 46.9536 43.8555C49.1172 43.9049 51.2738 43.8978 53.4374 43.919C53.4585 42.8195 53.4797 41.7272 53.4867 40.6277C51.3161 40.6348 49.1384 40.6348 46.9677 40.6489Z" fill="#EB7824"/>
<path d="M2.79395 2.69796C5.01393 2.38787 7.2621 2.2892 9.50322 2.29625C27.5732 2.33853 45.6502 2.30329 63.7201 2.31739C65.3058 2.29625 66.9197 2.4372 68.3715 3.15605L67.5258 3.18424C46.3972 3.24767 25.2616 3.12081 4.13298 3.24767C3.7947 3.11376 3.12518 2.83891 2.79395 2.69796Z" fill="#EB7824"/>
<path d="M18.4879 9.87935C18.9319 8.44165 19.693 7.13785 20.7431 6.05957C21.9412 6.76433 22.7658 7.8567 23.097 9.20983C24.4008 13.1988 26.2614 17.0044 27.3467 21.0497C27.8189 22.5368 25.909 22.72 24.9223 22.9385C24.429 21.8179 23.9427 20.6833 23.4705 19.5486C21.7862 19.5063 20.1088 19.4781 18.4315 19.4852C18.0087 21.2118 17.2687 22.9667 15.2108 23.009C14.8725 22.128 14.1536 21.2048 14.6963 20.2393C15.8521 16.7507 17.325 13.3749 18.4879 9.87935ZM19.693 16.4406C20.5669 16.3631 21.4408 16.2856 22.3147 16.2081C21.8496 15.0452 21.3563 13.8965 20.8629 12.7477C20.4471 13.974 20.0665 15.2073 19.693 16.4406Z" fill="#EB7824"/>
<path d="M27.3807 8.71667C27.2327 7.66658 27.9586 6.97591 28.7197 6.41211C32.1871 6.65877 35.6757 6.32754 39.1431 6.58125C40.912 6.83497 40.5385 8.766 39.6857 9.78789C38.2621 9.78789 36.8315 9.76675 35.4008 9.78084C35.3938 13.6429 35.5699 17.512 35.3656 21.3741C35.2598 23.0585 33.5191 22.6145 32.3563 22.544C31.9264 18.3084 32.2012 14.0517 32.166 9.80903C30.5732 9.55532 28.3039 10.4997 27.3807 8.71667Z" fill="#EB7824"/>
<path d="M14.7027 61.9895C23.188 61.6582 31.7156 61.6794 40.2079 61.9824C40.5743 63.3567 40.4052 65.4287 38.4389 65.0763C30.5034 64.9565 22.5326 65.4216 14.6182 64.8155C14.6252 63.8712 14.6605 62.9268 14.7027 61.9895Z" fill="#EB7824"/>
<path d="M42.1258 8.03956C42.0553 6.95424 43.4296 6.71462 44.0568 6.13672C45.8187 8.11708 46.9745 10.5274 48.4827 12.6839C50.2516 10.6613 51.2665 8.0889 53.1552 6.14377C55.939 6.93309 54.9242 10.0552 55.0933 12.1906C54.8678 15.7496 55.6078 19.4214 54.5506 22.8817C53.7049 22.6069 52.4293 22.8958 51.9994 21.9021C51.5907 19.1959 51.9219 16.4403 51.8867 13.7128C50.8084 15.0448 50.3362 17.3705 48.3699 17.5961C46.8054 17.0111 46.3402 15.1787 45.4099 13.9384C45.3677 16.405 45.572 18.8787 45.3536 21.3383C45.3183 23.1918 42.0835 23.2271 42.1469 21.3595C42.0553 16.9195 42.1117 12.4725 42.1258 8.03956Z" fill="#EB7824"/>
<path d="M43.6611 54.843C43.351 53.0106 44.6477 51.6293 46.5294 52.0451C46.607 53.067 46.6633 54.0889 46.6915 55.1178C45.6767 55.0544 44.6689 54.9628 43.6611 54.843Z" fill="#EB7824"/>
<path d="M53.2754 64.1383C53.5362 63.1023 53.7617 61.6223 55.1994 61.8267C56.8344 61.8056 56.6864 63.7718 56.4679 64.8995C55.3121 65.0545 54.2127 64.836 53.2754 64.1383Z" fill="#EB7824"/>
<path d="M5.04653 25.9619C25.1321 26.2579 45.2247 26.0465 65.3173 26.0676C63.9219 27.3503 61.9486 26.9838 60.2219 27.0613C41.6868 26.871 23.1306 27.315 4.60254 26.8076C4.7153 26.5962 4.93377 26.1733 5.04653 25.9619Z" fill="#EB7824"/>
<path d="M61.6907 29.542C62.2193 31.0079 62.3884 32.5654 62.3673 34.1229C62.332 47.5133 62.3532 60.9107 62.3391 74.3011L61.6343 74.3081C61.6766 59.3884 61.5498 44.4617 61.6907 29.542Z" fill="#EB7824"/>
<path d="M17.6494 53.8775C24.1473 53.7647 30.6804 53.5251 37.1641 53.9973C37.3474 54.0184 37.7138 54.0748 37.8971 54.103C34.331 54.7373 30.6945 54.3638 27.0932 54.4554C23.9429 54.4272 20.7151 54.8218 17.6494 53.8775Z" fill="#EB7824"/>
<path d="M49.2925 66.979C50.2722 66.1474 52.2384 67.1693 51.6676 68.5647C51.7733 69.8262 50.1453 70.4112 49.2784 69.6077C48.3129 69.1003 48.2988 67.4512 49.2925 66.979Z" fill="#EB7824"/>
<path d="M14.5845 35.5251C14.4506 33.9817 16.1702 34.2988 17.1851 34.2142C24.2538 34.2283 31.3225 34.2072 38.3912 34.2213C39.1876 34.1508 40.5055 34.4257 40.3645 35.5039C40.5407 42.2696 40.3363 49.0423 40.4632 55.815H40.4491C31.7947 56.1885 23.1121 56.3154 14.4647 55.7939H14.4365C14.6761 49.0423 14.3731 42.2767 14.5845 35.5251ZM17.6855 37.4632C17.6925 42.9321 17.7348 48.408 17.6502 53.8769C20.7159 54.8213 23.9437 54.4266 27.094 54.4548C30.6953 54.3632 34.3318 54.7367 37.8979 54.1025C37.7146 54.0743 37.3482 54.0179 37.1649 53.9967C37.2565 48.4855 37.1579 42.9744 37.2143 37.4632C30.7094 37.4843 24.1974 37.4984 17.6855 37.4632Z" fill="#EB7824"/>
<path d="M54.2548 52.1933C55.1851 51.6154 56.0378 52.595 56.8483 52.9333C56.7214 53.4689 56.4748 54.5472 56.355 55.0828C55.4176 55.0405 54.4874 54.9912 53.55 54.9278C53.6769 54.0398 53.1554 52.6303 54.2548 52.1933Z" fill="#EB7824"/>
<path d="M48.5322 64.6604C48.6027 63.5398 48.9339 62.4827 49.5118 61.5312C51.4217 61.7074 52.1829 63.3354 51.4076 65.0198C50.4421 64.9282 49.4836 64.8013 48.5322 64.6604Z" fill="#EB7824"/>
<path d="M48.8986 52.3696C49.695 52.1582 50.5196 52.0807 51.3371 51.9961C51.8797 53.3633 51.9009 54.8574 50.3786 55.5622C49.9276 55.3155 49.0184 54.8292 48.5674 54.5825C48.6449 53.8355 48.7224 53.0955 48.8986 52.3696Z" fill="#EB7824"/>
<path d="M14.4639 55.7939C23.1112 56.3155 31.7938 56.1886 40.4482 55.8151C40.117 56.0688 39.4545 56.5762 39.1162 56.8229C31.3357 56.9638 23.5341 56.9286 15.7536 56.844C15.4294 56.5833 14.7881 56.0547 14.4639 55.7939Z" fill="#EB7824"/>
<path d="M44.4595 56.7812C45.3334 57.042 46.5597 56.9433 46.7852 58.085C47.7507 59.7412 44.7766 61.0027 43.945 59.4452C43.2262 58.5713 44.2481 57.6411 44.4595 56.7812Z" fill="#EB7824"/>
<path d="M44.3532 62.0881C45.361 61.2494 46.2278 62.37 47.0947 62.8281C46.9326 63.3073 46.5943 64.2728 46.4252 64.752C45.9671 64.8789 45.0579 65.1256 44.5998 65.2454C43.9515 64.3926 43.0987 62.7787 44.3532 62.0881Z" fill="#EB7824"/>
<path d="M48.9251 57.3442C49.6722 56.872 50.6166 57.0835 51.4552 56.9707C51.5327 57.908 51.5962 58.8524 51.6385 59.7897C51.0958 59.9236 50.0034 60.1774 49.4608 60.3042C49.0238 59.3951 48.1217 58.3238 48.9251 57.3442Z" fill="#EB7824"/>
<path d="M54.2476 57.1333C55.1497 56.4286 56.087 57.4927 56.8834 57.8592C56.7424 58.3948 56.4535 59.4731 56.3055 60.0087C55.4245 59.9805 54.459 60.1919 53.6979 59.6352C53.3948 58.7683 53.2891 57.6337 54.2476 57.1333Z" fill="#EB7824"/>
</svg>
