<svg width="54" height="61" viewBox="0 0 54 61" fill="none" xmlns="http://www.w3.org/2000/svg">
<path d="M10.9301 13.295C11.395 6.06112 18.0557 -0.163815 25.2176 0.0196308C28.3698 0.0746647 31.534 -0.133242 34.6802 0.166386C39.6561 1.05304 44.0402 4.72197 45.8397 9.50991C47.126 12.6346 46.6912 16.0773 46.7576 19.3732C46.824 23.2684 46.6006 27.1758 46.8965 31.0709C47.7963 30.7713 49.3965 31.0893 49.4025 29.7012C49.6078 27.9462 49.7105 26.124 49.3663 24.3813C48.7624 23.0666 47.9714 21.8008 47.9472 20.2965C50.1634 20.0275 52.2045 21.9842 52.0898 24.2345C52.0173 26.7477 52.6634 29.5239 51.4678 31.8475C50.574 33.6025 48.4484 33.6636 46.7576 33.7859C47.1018 40.2983 42.1802 46.4926 36.0691 48.162C34.5655 48.4739 33.8408 49.9598 32.6633 50.7853C30.6162 51.5435 28.2369 51.5496 26.2019 50.773C23.2912 49.3544 23.5569 44.4686 26.6186 43.4169C28.9314 42.9277 31.842 42.5852 33.6717 44.4564C34.3541 44.9823 35.0003 45.9668 35.9725 45.4103C40.5257 43.7043 44.2394 39.1364 44.1489 34.0733C44.173 30.594 44.1368 27.1146 44.1247 23.6353C42.4882 22.1493 40.731 20.4555 38.4121 20.3088C33.8227 20.0703 29.2212 20.3944 24.6318 20.1804C20.9542 19.9296 17.7598 17.2024 16.3226 13.8576C17.1076 13.7475 18.2006 12.6285 18.883 13.509C20.3262 14.9032 21.5461 16.8416 23.6354 17.2636C30.429 18.1319 37.766 16.0222 44.0885 19.4527C44.5957 14.4446 43.9375 8.64159 39.6682 5.38848C35.4773 1.79906 29.6802 2.75298 24.6258 2.74686C18.6596 2.99146 13.5025 8.42757 13.4965 14.4691C13.4663 20.9936 13.5206 27.5243 13.4723 34.0489C13.2549 39.3505 17.4216 43.6798 21.9386 45.7038C21.8359 46.4621 21.7272 47.2203 21.6246 47.9785C20.6825 47.8501 19.7465 47.7095 18.8105 47.5811C18.8951 50.2533 19.203 53.6287 16.6849 55.3286C14.046 56.8635 10.9481 57.2854 8.10391 58.2943C5.46501 59.0098 2.92273 60.2389 0.157012 60.3C0.096625 59.5234 0.0483095 58.7529 0 57.9825C4.7283 56.3559 9.58944 55.1635 14.3057 53.5125C16.389 52.9377 16.1595 50.449 16.1776 48.7368C16.081 47.202 16.4977 45.3308 15.1269 44.2485C12.3068 41.509 10.773 37.7117 10.6221 33.7798C8.71989 33.7248 6.47349 33.2784 5.74885 31.2299C5.27179 28.7779 5.46503 26.2341 5.56165 23.7514C5.57976 21.7152 7.50005 20.5901 9.16673 19.9969C9.92157 21.5868 8.97351 22.9871 8.24283 24.3446C7.91674 26.3747 8.1643 28.4415 8.14619 30.49C8.97953 30.6918 9.83099 30.8753 10.6824 31.0526C11.1353 25.1456 10.6704 19.2081 10.9301 13.295ZM27.005 45.924C26.9809 46.7678 26.9869 47.6178 27.0292 48.4677C28.5328 48.4983 30.0727 48.6573 31.5643 48.3454C32.2466 47.6667 31.987 46.7495 31.8722 45.9117C30.2478 45.8628 28.6234 45.8567 27.005 45.924Z" fill="#444444"/>
<path d="M36 49.5C36.8137 49.5 37.6335 49.5062 38.4534 49.5185C38.764 50.7117 38.6957 52.3808 40.0621 52.9372C44.6025 54.798 49.3975 55.9849 54 57.7097C53.8261 58.5752 53.6459 59.4345 53.472 60.3C49.2795 59.0821 45.1863 57.5737 41.0186 56.2941C39.4534 55.7562 37.6646 55.2184 36.8075 53.6852C35.969 52.455 36.118 50.9033 36 49.5Z" fill="#444444"/>
</svg>
