<svg width="59" height="43" viewBox="0 0 59 43" fill="none" xmlns="http://www.w3.org/2000/svg">
<path d="M1.86708 0.528778C2.65123 0.0308253 3.59802 0.0366795 4.49835 0.00738816C21.1631 0.0191047 37.8336 0.024963 54.4984 0.00738816C55.7995 -0.0511945 57.2632 0.224146 58.0881 1.35479C59.2556 2.66119 58.9245 4.52411 59 6.12928C58.9361 17.0608 59.0755 27.9982 58.9303 38.9297C59.0174 40.9977 57.118 42.7552 55.0967 42.6556C38.0311 42.6556 20.9656 42.6556 3.90007 42.6556C1.61731 42.7903 -0.200765 40.6169 0.0373856 38.3908C-0.0265085 27.055 0.00834352 15.7134 0.0199606 4.3718C-0.0962104 2.86623 0.548535 1.30793 1.86708 0.528778ZM2.71514 3.33488C2.4886 4.24292 2.54087 5.19196 2.52345 6.12342C2.5583 15.1159 2.54667 24.1024 2.53506 33.0949C2.54667 35.3737 2.40147 37.6702 2.8313 39.9256C20.6113 40.0545 38.3971 40.0721 56.1771 39.9198C56.6069 37.6643 56.4501 35.3679 56.4617 33.0949C56.4442 24.3016 56.4442 15.5142 56.4675 6.72683C56.4791 5.41457 56.392 4.09646 56.2061 2.80178C54.8585 2.65532 53.5051 2.5323 52.1575 2.5323C36.4628 2.55574 20.7739 2.54402 5.07921 2.53816C4.24277 2.58503 3.19725 2.46786 2.71514 3.33488Z" fill="#444444"/>
<path d="M52.8609 4.43069C53.4501 3.65455 54.471 3.7849 55.3227 3.63086C55.381 4.56697 55.521 5.64527 54.6926 6.30884C49.4658 11.6589 44.1632 16.9437 38.9422 22.2997C37.3847 23.929 35.7921 25.6709 33.6512 26.4826C29.9936 27.9756 25.5077 27.2172 22.6901 24.3615C16.9383 18.5612 11.2273 12.7194 5.46963 6.91909C5.46379 6.49251 5.45212 5.64526 5.44629 5.21868C7.14967 4.43069 8.27554 6.01853 9.37224 7.08498C14.3132 12.1388 19.26 17.1867 24.2418 22.199C27.316 25.7183 33.1437 25.2739 35.9379 21.6124C41.5848 15.8951 47.1966 10.1362 52.8609 4.43069Z" fill="#444444"/>
<path d="M16.5026 23.6056C17.0832 22.8822 17.9965 22.8288 18.8196 22.6924C19.699 24.5545 17.9796 25.8057 16.9085 27.0036C13.5825 30.3483 10.4425 33.8827 7.11081 37.2155C6.69365 37.0791 5.86497 36.8122 5.44781 36.6817C5.39144 34.8078 6.91351 33.687 8.01843 32.4832C10.8878 29.5655 13.6219 26.5055 16.5026 23.6056Z" fill="#444444"/>
<path d="M40.4396 22.6924C41.5151 22.8049 42.4724 23.3321 43.1818 24.1909C46.611 27.8868 50.1528 31.4702 53.5539 35.1957C53.5426 35.5807 53.5257 36.3507 53.5201 36.7357C53.1315 36.8601 52.3601 37.097 51.9772 37.2155C47.9287 32.9865 43.7731 28.8582 39.9385 24.4219C40.0624 23.9895 40.3157 23.1248 40.4396 22.6924Z" fill="#444444"/>
</svg>
