<svg width="64" height="64" viewBox="0 0 64 64" fill="none" xmlns="http://www.w3.org/2000/svg">
<g filter="url(#filter0_ii_3546_9309)">
<circle cx="32" cy="32" r="32" fill="#0FD5E1"/>
</g>
<g clip-path="url(#clip0_3546_9309)">
<path d="M47.7923 21.5997C46.5723 22.4603 45.2214 23.1186 43.7917 23.5491C43.0244 22.6668 42.0046 22.0414 40.8703 21.7576C39.736 21.4738 38.5419 21.5452 37.4495 21.9621C36.3571 22.3791 35.4191 23.1215 34.7623 24.0889C34.1056 25.0563 33.7618 26.2021 33.7775 27.3713V28.6454C31.5385 28.7034 29.3199 28.2068 27.3192 27.1998C25.3186 26.1929 23.5981 24.7067 22.3108 22.8738C22.3108 22.8738 17.2145 34.3405 28.6812 39.4368C26.0573 41.2179 22.9315 42.111 19.7627 41.9849C31.2294 48.3553 45.2442 41.9849 45.2442 27.3331C45.243 26.9782 45.2089 26.6242 45.1423 26.2756C46.4426 24.9932 47.3602 23.3741 47.7923 21.5997V21.5997Z" stroke="white" stroke-width="2" stroke-linecap="round" stroke-linejoin="round"/>
</g>
<defs>
<filter id="filter0_ii_3546_9309" x="0" y="0" width="65" height="68" filterUnits="userSpaceOnUse" color-interpolation-filters="sRGB">
<feFlood flood-opacity="0" result="BackgroundImageFix"/>
<feBlend mode="normal" in="SourceGraphic" in2="BackgroundImageFix" result="shape"/>
<feColorMatrix in="SourceAlpha" type="matrix" values="0 0 0 0 0 0 0 0 0 0 0 0 0 0 0 0 0 0 127 0" result="hardAlpha"/>
<feMorphology radius="5" operator="erode" in="SourceAlpha" result="effect1_innerShadow_3546_9309"/>
<feOffset dx="1" dy="4"/>
<feGaussianBlur stdDeviation="8.5"/>
<feComposite in2="hardAlpha" operator="arithmetic" k2="-1" k3="1"/>
<feColorMatrix type="matrix" values="0 0 0 0 0 0 0 0 0 0 0 0 0 0 0 0 0 0 0.37 0"/>
<feBlend mode="normal" in2="shape" result="effect1_innerShadow_3546_9309"/>
<feColorMatrix in="SourceAlpha" type="matrix" values="0 0 0 0 0 0 0 0 0 0 0 0 0 0 0 0 0 0 127 0" result="hardAlpha"/>
<feOffset dy="4"/>
<feGaussianBlur stdDeviation="2"/>
<feComposite in2="hardAlpha" operator="arithmetic" k2="-1" k3="1"/>
<feColorMatrix type="matrix" values="0 0 0 0 0.0313726 0 0 0 0 0.419608 0 0 0 0 0.839216 0 0 0 1 0"/>
<feBlend mode="normal" in2="effect1_innerShadow_3546_9309" result="effect2_innerShadow_3546_9309"/>
</filter>
<clipPath id="clip0_3546_9309">
<rect width="30.5778" height="30.5778" fill="white" transform="translate(18.4888 17.7773)"/>
</clipPath>
</defs>
</svg>
