<svg width="64" height="64" viewBox="0 0 64 64" fill="none" xmlns="http://www.w3.org/2000/svg">
<g filter="url(#filter0_ii_3545_9255)">
<circle cx="32" cy="32" r="32" fill="#FF0000"/>
</g>
<path d="M50.0887 32.2449C50.0887 32.1578 50.0887 32.0589 50.0848 31.9441C50.0808 31.6235 50.0729 31.2632 50.065 30.8793C50.0333 29.7749 49.9779 28.6745 49.8908 27.6374C49.7721 26.2084 49.5979 25.017 49.3604 24.1224C49.1098 23.1888 48.6185 22.3374 47.9357 21.6532C47.2529 20.969 46.4024 20.476 45.4694 20.2235C44.3492 19.9226 42.1562 19.7366 39.0687 19.6218C37.6002 19.5664 36.0287 19.5307 34.4573 19.511C33.9071 19.503 33.3964 19.4991 32.9373 19.4951H31.7735C31.3144 19.4991 30.8037 19.503 30.2535 19.511C28.6821 19.5307 27.1106 19.5664 25.6421 19.6218C22.5546 19.7405 20.3577 19.9266 19.2414 20.2235C18.3081 20.4754 17.4573 20.9682 16.7744 21.6525C16.0915 22.3368 15.6004 23.1885 15.3504 24.1224C15.1089 25.017 14.9387 26.2084 14.82 27.6374C14.7329 28.6745 14.6775 29.7749 14.6458 30.8793C14.6339 31.2632 14.63 31.6235 14.626 31.9441C14.626 32.0589 14.6221 32.1578 14.6221 32.2449V32.4666C14.6221 32.5537 14.6221 32.6526 14.626 32.7674C14.63 33.088 14.6379 33.4482 14.6458 33.8322C14.6775 34.9366 14.7329 36.037 14.82 37.0741C14.9387 38.503 15.1129 39.6945 15.3504 40.5891C15.8571 42.4851 17.3454 43.9814 19.2414 44.488C20.3577 44.7889 22.5546 44.9749 25.6421 45.0897C27.1106 45.1451 28.6821 45.1807 30.2535 45.2005C30.8037 45.2085 31.3144 45.2124 31.7735 45.2164H32.9373C33.3964 45.2124 33.9071 45.2085 34.4573 45.2005C36.0287 45.1807 37.6002 45.1451 39.0687 45.0897C42.1562 44.9709 44.3531 44.7849 45.4694 44.488C47.3654 43.9814 48.8537 42.4891 49.3604 40.5891C49.6019 39.6945 49.7721 38.503 49.8908 37.0741C49.9779 36.037 50.0333 34.9366 50.065 33.8322C50.0769 33.4482 50.0808 33.088 50.0848 32.7674C50.0848 32.6526 50.0887 32.5537 50.0887 32.4666V32.2449ZM47.2387 32.4507C47.2387 32.5339 47.2387 32.6249 47.2348 32.7318C47.2308 33.0405 47.2229 33.381 47.215 33.7491C47.1873 34.802 47.1319 35.8549 47.0487 36.8326C46.9419 38.1072 46.7914 39.1522 46.6054 39.8528C46.36 40.7672 45.6396 41.4916 44.7292 41.733C43.8979 41.9547 41.8039 42.1328 38.9579 42.2397C37.5171 42.2951 35.9654 42.3307 34.4177 42.3505C33.8754 42.3585 33.3727 42.3624 32.9214 42.3624H31.7894L30.2931 42.3505C28.7454 42.3307 27.1977 42.2951 25.7529 42.2397C22.9069 42.1289 20.8089 41.9547 19.9817 41.733C19.0712 41.4876 18.3508 40.7672 18.1054 39.8528C17.9194 39.1522 17.7689 38.1072 17.6621 36.8326C17.5789 35.8549 17.5275 34.802 17.4958 33.7491C17.4839 33.381 17.48 33.0366 17.476 32.7318C17.476 32.6249 17.4721 32.5299 17.4721 32.4507V32.2607C17.4721 32.1776 17.4721 32.0866 17.476 31.9797C17.48 31.6709 17.4879 31.3305 17.4958 30.9624C17.5235 29.9095 17.5789 28.8566 17.6621 27.8789C17.7689 26.6043 17.9194 25.5593 18.1054 24.8587C18.3508 23.9443 19.0712 23.2199 19.9817 22.9785C20.8129 22.7568 22.9069 22.5787 25.7529 22.4718C27.1937 22.4164 28.7454 22.3807 30.2931 22.361C30.8354 22.353 31.3381 22.3491 31.7894 22.3491H32.9214L34.4177 22.361C35.9654 22.3807 37.5131 22.4164 38.9579 22.4718C41.8039 22.5826 43.9019 22.7568 44.7292 22.9785C45.6396 23.2239 46.36 23.9443 46.6054 24.8587C46.7914 25.5593 46.9419 26.6043 47.0487 27.8789C47.1319 28.8566 47.1833 29.9095 47.215 30.9624C47.2269 31.3305 47.2308 31.6749 47.2348 31.9797C47.2348 32.0866 47.2387 32.1816 47.2387 32.2607V32.4507ZM28.8325 37.6599L38.0158 32.3162L28.8325 27.0516V37.6599Z" fill="white"/>
<defs>
<filter id="filter0_ii_3545_9255" x="0" y="0" width="65" height="68" filterUnits="userSpaceOnUse" color-interpolation-filters="sRGB">
<feFlood flood-opacity="0" result="BackgroundImageFix"/>
<feBlend mode="normal" in="SourceGraphic" in2="BackgroundImageFix" result="shape"/>
<feColorMatrix in="SourceAlpha" type="matrix" values="0 0 0 0 0 0 0 0 0 0 0 0 0 0 0 0 0 0 127 0" result="hardAlpha"/>
<feMorphology radius="5" operator="erode" in="SourceAlpha" result="effect1_innerShadow_3545_9255"/>
<feOffset dx="1" dy="4"/>
<feGaussianBlur stdDeviation="8.5"/>
<feComposite in2="hardAlpha" operator="arithmetic" k2="-1" k3="1"/>
<feColorMatrix type="matrix" values="0 0 0 0 0 0 0 0 0 0 0 0 0 0 0 0 0 0 0.37 0"/>
<feBlend mode="normal" in2="shape" result="effect1_innerShadow_3545_9255"/>
<feColorMatrix in="SourceAlpha" type="matrix" values="0 0 0 0 0 0 0 0 0 0 0 0 0 0 0 0 0 0 127 0" result="hardAlpha"/>
<feOffset dy="4"/>
<feGaussianBlur stdDeviation="2"/>
<feComposite in2="hardAlpha" operator="arithmetic" k2="-1" k3="1"/>
<feColorMatrix type="matrix" values="0 0 0 0 0.6875 0 0 0 0 0 0 0 0 0 0 0 0 0 1 0"/>
<feBlend mode="normal" in2="effect1_innerShadow_3545_9255" result="effect2_innerShadow_3545_9255"/>
</filter>
</defs>
</svg>
