<svg width="64" height="64" viewBox="0 0 64 64" fill="none" xmlns="http://www.w3.org/2000/svg">
<g filter="url(#filter0_i_3546_9368)">
<circle cx="32" cy="32" r="32" fill="url(#paint0_linear_3546_9368)"/>
<circle cx="32" cy="32" r="32" fill="url(#paint1_linear_3546_9368)"/>
</g>
<g clip-path="url(#clip0_3546_9368)">
<path d="M32.711 15.6445C28.2725 15.6445 27.7144 15.665 25.9705 15.7427C24.2266 15.8244 23.0388 16.0984 21.9981 16.5032C20.9066 16.9138 19.9179 17.5578 19.1012 18.3902C18.2692 19.2074 17.6253 20.196 17.2141 21.2872C16.8093 22.3258 16.5333 23.5156 16.4536 25.2534C16.3759 27.0014 16.3555 27.5575 16.3555 32.0021C16.3555 36.4427 16.3759 36.9988 16.4536 38.7427C16.5354 40.4845 16.8093 41.6724 17.2141 42.713C17.6332 43.7884 18.1914 44.7002 19.1012 45.61C20.0089 46.5197 20.9207 47.0799 21.9961 47.497C23.0388 47.9018 24.2245 48.1778 25.9664 48.2575C27.7124 48.3352 28.2684 48.3556 32.711 48.3556C37.1536 48.3556 37.7076 48.3352 39.4536 48.2575C41.1934 48.1757 42.3853 47.9018 43.426 47.497C44.5168 47.0862 45.5048 46.4422 46.3209 45.61C47.2307 44.7002 47.7888 43.7884 48.2079 42.713C48.6107 41.6724 48.8867 40.4845 48.9684 38.7427C49.0461 36.9988 49.0666 36.4427 49.0666 32.0001C49.0666 27.5575 49.0461 27.0014 48.9684 25.2555C48.8867 23.5156 48.6107 22.3258 48.2079 21.2872C47.7968 20.1959 47.1529 19.2073 46.3209 18.3902C45.5044 17.5575 44.5156 16.9134 43.4239 16.5032C42.3812 16.0984 41.1914 15.8224 39.4516 15.7427C37.7056 15.665 37.1516 15.6445 32.7069 15.6445H32.7131H32.711ZM31.2452 18.5926H32.7131C37.08 18.5926 37.5972 18.6069 39.3207 18.6867C40.9154 18.7582 41.7822 19.026 42.3588 19.2489C43.1213 19.5453 43.6672 19.9011 44.2396 20.4735C44.8121 21.046 45.1658 21.5898 45.4622 22.3544C45.6871 22.9289 45.9529 23.7957 46.0244 25.3904C46.1042 27.1139 46.1205 27.6311 46.1205 31.996C46.1205 36.3609 46.1042 36.8802 46.0244 38.6036C45.9529 40.1983 45.6851 41.0631 45.4622 41.6396C45.2 42.3498 44.7815 42.9919 44.2376 43.5185C43.6652 44.0909 43.1213 44.4446 42.3567 44.7411C41.7843 44.966 40.9174 45.2317 39.3207 45.3053C37.5972 45.383 37.08 45.4014 32.7131 45.4014C28.3461 45.4014 27.8268 45.383 26.1034 45.3053C24.5087 45.2317 23.6439 44.966 23.0674 44.7411C22.3569 44.4792 21.7142 44.0614 21.1865 43.5185C20.6422 42.9911 20.223 42.3484 19.9598 41.6376C19.737 41.0631 19.4692 40.1963 19.3976 38.6016C19.3199 36.8781 19.3036 36.3609 19.3036 31.9919C19.3036 27.625 19.3199 27.1098 19.3976 25.3863C19.4712 23.7916 19.737 22.9248 19.9619 22.3483C20.2583 21.5857 20.614 21.0398 21.1865 20.4674C21.7589 19.8949 22.3028 19.5412 23.0674 19.2448C23.6439 19.0199 24.5087 18.7541 26.1034 18.6805C27.6122 18.611 28.1969 18.5906 31.2452 18.5885V18.5926ZM41.4428 21.3076C41.1851 21.3076 40.9299 21.3584 40.6918 21.457C40.4536 21.5557 40.2373 21.7002 40.055 21.8825C39.8728 22.0647 39.7282 22.2811 39.6296 22.5192C39.5309 22.7574 39.4802 23.0126 39.4802 23.2703C39.4802 23.5281 39.5309 23.7833 39.6296 24.0214C39.7282 24.2595 39.8728 24.4759 40.055 24.6581C40.2373 24.8404 40.4536 24.9849 40.6918 25.0836C40.9299 25.1822 41.1851 25.233 41.4428 25.233C41.9634 25.233 42.4626 25.0262 42.8307 24.6581C43.1987 24.2901 43.4055 23.7908 43.4055 23.2703C43.4055 22.7498 43.1987 22.2506 42.8307 21.8825C42.4626 21.5144 41.9634 21.3076 41.4428 21.3076ZM32.7131 23.6015C31.599 23.5841 30.4926 23.7885 29.4583 24.2029C28.424 24.6172 27.4824 25.2331 26.6884 26.0148C25.8944 26.7965 25.2639 27.7284 24.8335 28.7561C24.4031 29.7838 24.1814 30.8869 24.1814 32.0011C24.1814 33.1153 24.4031 34.2184 24.8335 35.2461C25.2639 36.2739 25.8944 37.2057 26.6884 37.9874C27.4824 38.7691 28.424 39.385 29.4583 39.7994C30.4926 40.2137 31.599 40.4181 32.7131 40.4007C34.9181 40.3663 37.0212 39.4662 38.5683 37.8947C40.1155 36.3232 40.9826 34.2064 40.9826 32.0011C40.9826 29.7958 40.1155 27.679 38.5683 26.1075C37.0212 24.536 34.9181 23.6359 32.7131 23.6015ZM32.7131 26.5476C34.1592 26.5476 35.546 27.122 36.5686 28.1446C37.5911 29.1671 38.1656 30.554 38.1656 32.0001C38.1656 33.4462 37.5911 34.8331 36.5686 35.8556C35.546 36.8782 34.1592 37.4526 32.7131 37.4526C31.267 37.4526 29.8801 36.8782 28.8575 35.8556C27.835 34.8331 27.2605 33.4462 27.2605 32.0001C27.2605 30.554 27.835 29.1671 28.8575 28.1446C29.8801 27.122 31.267 26.5476 32.7131 26.5476Z" fill="white"/>
</g>
<defs>
<filter id="filter0_i_3546_9368" x="0" y="0" width="65" height="68" filterUnits="userSpaceOnUse" color-interpolation-filters="sRGB">
<feFlood flood-opacity="0" result="BackgroundImageFix"/>
<feBlend mode="normal" in="SourceGraphic" in2="BackgroundImageFix" result="shape"/>
<feColorMatrix in="SourceAlpha" type="matrix" values="0 0 0 0 0 0 0 0 0 0 0 0 0 0 0 0 0 0 127 0" result="hardAlpha"/>
<feMorphology radius="5" operator="erode" in="SourceAlpha" result="effect1_innerShadow_3546_9368"/>
<feOffset dx="1" dy="4"/>
<feGaussianBlur stdDeviation="8.5"/>
<feComposite in2="hardAlpha" operator="arithmetic" k2="-1" k3="1"/>
<feColorMatrix type="matrix" values="0 0 0 0 0 0 0 0 0 0 0 0 0 0 0 0 0 0 0.37 0"/>
<feBlend mode="normal" in2="shape" result="effect1_innerShadow_3546_9368"/>
</filter>
<linearGradient id="paint0_linear_3546_9368" x1="5.68889" y1="26.3111" x2="32" y2="58.6667" gradientUnits="userSpaceOnUse">
<stop stop-color="#EB1090"/>
<stop offset="1" stop-color="#451BF5"/>
</linearGradient>
<linearGradient id="paint1_linear_3546_9368" x1="55.1111" y1="38.0444" x2="23.4667" y2="38.0444" gradientUnits="userSpaceOnUse">
<stop stop-color="#F1D99B"/>
<stop offset="1" stop-color="#FF11A0" stop-opacity="0.19"/>
</linearGradient>
<clipPath id="clip0_3546_9368">
<rect width="34.8444" height="34.8444" fill="white" transform="translate(14.9331 15.6445)"/>
</clipPath>
</defs>
</svg>
